<svg viewBox="0 0 17 16" fill="none" xmlns="http://www.w3.org/2000/svg">
<path d="M16.6482 7.86891L8.92415 0.175224C8.86854 0.119678 8.80248 0.0756107 8.72976 0.0455436C8.65704 0.0154765 8.57908 0 8.50035 0C8.42162 0 8.34367 0.0154765 8.27095 0.0455436C8.19823 0.0756107 8.13217 0.119678 8.07655 0.175224L0.35254 7.86891C0.127515 8.09322 0 8.3979 0 8.71567C0 9.3755 0.538187 9.91197 1.20014 9.91197H2.01398V15.4019C2.01398 15.7327 2.28214 16 2.61405 16H7.30021V11.813H9.40045V16H14.3867C14.7186 16 14.9867 15.7327 14.9867 15.4019V9.91197H15.8006C16.1194 9.91197 16.425 9.78673 16.65 9.56055C17.117 9.09325 17.117 8.33622 16.6482 7.86891Z" />
</svg>
