<svg viewBox="0 0 14 14" fill="none" xmlns="http://www.w3.org/2000/svg">
<path d="M13.8425 13.0793L10.9343 10.1773C11.9607 8.95507 12.4757 7.3837 12.3719 5.79092C12.2682 4.19813 11.5536 2.70691 10.3773 1.62826C9.20094 0.54962 7.65368 -0.0331639 6.0582 0.00145886C4.46272 0.0360816 2.94219 0.685438 1.81375 1.8141C0.685307 2.94276 0.0360747 4.46357 0.00145858 6.05936C-0.0331575 7.65515 0.549515 9.2027 1.62795 10.3792C2.70639 11.5558 4.19733 12.2705 5.78981 12.3743C7.38229 12.4781 8.95335 11.963 10.1753 10.9364L13.0768 13.8452C13.1795 13.9445 13.3168 14 13.4597 14C13.6025 14 13.7398 13.9445 13.8425 13.8452C13.9434 13.7433 14 13.6057 14 13.4622C14 13.3188 13.9434 13.1812 13.8425 13.0793ZM1.10149 6.20714C1.10149 5.19738 1.40086 4.2103 1.96175 3.37071C2.52263 2.53112 3.31984 1.87675 4.25256 1.49033C5.18528 1.10391 6.21162 1.0028 7.20178 1.1998C8.19195 1.39679 9.10148 1.88304 9.81535 2.59705C10.5292 3.31106 11.0154 4.22076 11.2123 5.21112C11.4093 6.20148 11.3082 7.22801 10.9219 8.16091C10.5355 9.09381 9.88127 9.89117 9.04184 10.4522C8.20242 11.0132 7.21552 11.3126 6.20595 11.3126C4.85271 11.3108 3.5554 10.7723 2.59851 9.81527C1.64163 8.8582 1.10327 7.56064 1.10149 6.20714Z" />
</svg>
