<svg viewBox="0 0 16 18" fill="none" xmlns="http://www.w3.org/2000/svg">
<path d="M15 0H13C12.7348 0 12.4804 0.105404 12.2929 0.293023C12.1054 0.480643 12 0.73511 12 1.00044V18H16V1.00044C16 0.73511 15.8946 0.480643 15.7071 0.293023C15.5196 0.105404 15.2652 0 15 0ZM9 6.00267H7C6.73478 6.00267 6.48043 6.10807 6.29289 6.29569C6.10536 6.48331 6 6.73778 6 7.00311V18H10V7.00311C10 6.73778 9.89464 6.48331 9.70711 6.29569C9.51957 6.10807 9.26522 6.00267 9 6.00267ZM3 12.0053H1C0.734784 12.0053 0.48043 12.1107 0.292893 12.2984C0.105357 12.486 0 12.7404 0 13.0058V18H4V13.0058C4 12.7404 3.89464 12.486 3.70711 12.2984C3.51957 12.1107 3.26522 12.0053 3 12.0053Z" />
</svg>
